#!OML:ASF H:\Male1\Project 1\Capture day 1\Session 1\Male1.ASF
:FULLY-SPECIFIED
:DEGREES
551
root 16.7485 15.5057 -0.0593557 -10.9589 -98.3272 8.72366
lowerback 8.85463 3.99707 -3.20264
upperback 3.78803 4.81246 -2.64354
thorax -1.057 2.31262 -1.40064
lowerneck -11.7931 0.794069 6.32741
upperneck 2.37467 0.177057 -1.44692
head 2.86839 0.0874506 -1.58917
rclavicle 6.95746e-014 -3.18055e-014
rhumerus 46.8622 41.8677 -19.9753
rradius 66.4331
rwrist 2.68069
rhand -49.6915 48.3483
rfingers 7.12502
rthumb -22.293 19.6142
lclavicle 6.95746e-014 -3.18055e-014
lhumerus -37.8112 -13.2619 81.3143
lradius 35.3426
lwrist 3.84685
lhand -17.4296 11.2262
lfingers 7.12502
lthumb 8.82076 41.0218
rfemur -1.80258 16.1796 18.825
rtibia 17.9768
rfoot -25.876 -31.1479
rtoes -20.2649
lfemur -2.01068 -13.9702 -21.9459
ltibia 23.0712
lfoot -25.8328 28.1334
ltoes 4.12456
552
root 16.7464 15.5062 -0.0585341 -10.4937 -98.8757 8.23466
lowerback 9.55042 4.00401 -3.20001
upperback 3.21026 4.77495 -2.6813
thorax -2.03442 2.30785 -1.51416
lowerneck -11.6948 0.740613 6.33037
upperneck 2.98474 0.0940307 -1.12536
head 3.0539 0.0738561 -1.49206
rclavicle 2.40529e-014 -3.02153e-014
rhumerus 51.6947 42.7131 -16.6236
rradius 67.502
rwrist 3.53112
rhand -49.912 47.1322
rfingers 7.12502
rthumb -22.5047 18.4237
lclavicle 2.40529e-014 -3.02153e-014
lhumerus -38.5584 -13.0108 81.2132
lradius 34.5213
lwrist 2.93324
lhand -17.5052 10.4933
lfingers 7.12502
lthumb 8.74789 40.292
rfemur -1.87908 16.4028 18.827
rtibia 17.9909
rfoot -25.5783 -30.9789
rtoes -20.6342
lfemur -1.81751 -13.8899 -21.9941
ltibia 22.9594
lfoot -26.2041 28.4274
ltoes 4.71393
553
root 16.7457 15.5067 -0.0604106 -9.5722 -99.541 7.25537
lowerback 8.42571 4.00686 -2.64446
upperback 3.89459 4.87768 -3.115
thorax -0.623338 2.34839 -2.16316
lowerneck -12.0071 0.769076 6.72267
upperneck 2.57955 0.0165832 -0.722615
head 2.97006 0.0421945 -1.43199
rclavicle -2.50469e-014 2.06736e-014
rhumerus 56.2947 41.0412 -14.7279
rradius 68.2647
rwrist 3.80216
rhand -48.7054 47.564
rfingers 7.12502
rthumb -21.3461 18.7197
lclavicle -2.50469e-014 2.06736e-014
lhumerus -37.2745 -12.9409 80.318
lradius 33.6664
lwrist 2.36163
lhand -17.2686 10.5385
lfingers 7.12502
lthumb 8.97614 40.3275
rfemur -1.98341 16.6279 18.7553
rtibia 18.0189
rfoot -25.1118 -30.726
rtoes -21.2589
lfemur -1.57027 -13.8002 -22.1234
ltibia 22.8156
lfoot -26.6638 28.804
ltoes 5.46277
554
root 16.7427 15.5081 -0.0643217 -8.89501 -100.317 6.53122
lowerback 8.39572 4.12779 -2.48047
upperback 3.78576 5.04444 -3.29142
thorax -0.686152 2.43519 -2.45274
lowerneck -11.9971 0.724957 6.76783
upperneck 2.74462 -0.0797914 -0.295391
head 3.01857 0.0150541 -1.30475
rclavicle -2.34566e-014 -1.59028e-015
rhumerus 59.7861 39.8012 -13.837
rradius 68.7915
rwrist 4.64569
rhand -47.6421 50.0797
rfingers 7.12502
rthumb -20.3244 21.1232
lclavicle -2.34566e-014 -1.59028e-015
lhumerus -37.2825 -12.8445 80.0204
lradius 32.9012
lwrist 1.75854
lhand -16.7674 10.7744
lfingers 7.12502
lthumb 9.45975 40.5421
rfemur -2.10212 16.9129 18.734
rtibia 18.0348
rfoot -24.5037 -30.4365
rtoes -21.9863
lfemur -1.30395 -13.7002 -22.2201
ltibia 22.6876
lfoot -27.25 29.2107
ltoes 6.27563
555
root 16.7397 15.51 -0.0677555 -8.92533 -101.041 6.5665
lowerback 8.33205 4.20425 -2.26174
upperback 3.67181 5.16415 -3.3556
thorax -0.740962 2.49976 -2.65025
lowerneck -11.8333 0.60017 6.44181
upperneck 2.82272 -0.230255 0.357752
head 3.00272 -0.0372248 -1.03777
rclavicle -7.95139e-014 3.18055e-014
rhumerus 62.9514 38.1018 -13.5679
rradius 69.185
rwrist 5.63308
rhand -46.2214 51.0055
rfingers 7.12502
rthumb -18.9586 21.9094
lclavicle -7.95139e-014 3.18055e-014
lhumerus -37.1533 -12.529 79.7863
lradius 32.0064
lwrist 0.985777
lhand -16.4049 10.4704
lfingers 7.12502
lthumb 9.80956 40.2219
rfemur -2.2368 17.241 18.8426
rtibia 18.0457
rfoot -24.024 -30.1486
rtoes -22.3524
lfemur -1.10639 -13.5842 -22.1657
ltibia 22.5684
lfoot -27.7347 29.5693
ltoes 6.82474
556
root 16.7394 15.5115 -0.0702876 -9.13177 -101.593 6.79451
lowerback 8.30638 4.23792 -2.03664
upperback 3.5837 5.22824 -3.3654
thorax -0.795193 2.53614 -2.79215
lowerneck -11.6403 0.405865 6.0231
upperneck 2.87025 -0.459852 1.03484
head 2.97084 -0.130534 -0.752647
rclavicle -4.17448e-015 -2.38542e-014
rhumerus 66.0479 36.427 -13.16
rradius 70.0824
rwrist 6.04412
rhand -46.7693 50.7787
rfingers 7.12502
rthumb -19.4855 21.7351
lclavicle -4.17448e-015 -2.38542e-014
lhumerus -36.9092 -12.0823 79.5729
lradius 31.2049
lwrist 0.136945
lhand -16.299 10.2924
lfingers 7.12502
lthumb 9.91168 40.039
rfemur -2.36544 17.5135 18.9586
rtibia 18.0641
rfoot -23.8218 -29.9262
rtoes -22.3748
lfemur -0.974732 -13.5188 -22.0777
ltibia 22.4594
lfoot -28.1061 29.8889
ltoes 7.2696
557
root 16.7378 15.5121 -0.0737796 -8.56837 -101.927 6.25133
lowerback 8.22982 4.26191 -1.95968
upperback 3.53035 5.26724 -3.43799
thorax -0.793074 2.55741 -2.90915
lowerneck -11.6214 0.25235 5.967
upperneck 2.9769 -0.676043 1.297
head 2.9978 -0.2261 -0.669968
rclavicle 2.127e-014 -1.90833e-014
rhumerus 68.1892 34.3321 -13.9379
rradius 70.2529
rwrist 6.16911
rhand -46.9384 50.1931
rfingers 7.12502
rthumb -19.6481 21.166
lclavicle 2.127e-014 -1.90833e-014
lhumerus -36.6342 -11.7295 79.3305
lradius 30.6382
lwrist -0.543948
lhand -16.1781 10.3016
lfingers 7.12502
lthumb 10.0283 40.0427
rfemur -2.47402 17.6908 18.859
rtibia 18.0982
rfoot -23.826 -29.7205
rtoes -22.27
lfemur -0.883597 -13.4545 -22.1776
ltibia 22.3719
lfoot -28.3144 30.1473
ltoes 7.61926
558
root 16.7344 15.5101 -0.0809476 -7.63334 -102.153 5.29292
lowerback 8.13792 4.26668 -2.04779
upperback 3.55122 5.26868 -3.48807
thorax -0.723999 2.55667 -2.90383
lowerneck -11.871 0.0881699 5.92155
upperneck 3.19112 -0.920295 1.40086
head 3.11363 -0.336659 -0.645632
rclavicle 4.05521e-014 1.27222e-014
rhumerus 69.9644 31.8995 -15.2321
rradius 70.4329
rwrist 5.41922
rhand -47.1268 50.1824
rfingers 7.12502
rthumb -19.8292 21.1739
lclavicle 4.05521e-014 1.27222e-014
lhumerus -36.2345 -11.3195 79.1011
lradius 30.2332
lwrist -0.965859
lhand -15.9035 10.1121
lfingers 7.12502
lthumb 10.2933 39.8402
rfemur -2.52144 17.9267 18.6775
rtibia 18.151
rfoot -23.8807 -29.5342
rtoes -22.1418
lfemur -0.775593 -13.3387 -22.3752
ltibia 22.3002
lfoot -28.3522 30.3458
ltoes 7.65809
559
root 16.7326 15.5086 -0.0915647 -7.36414 -102.3 4.98975
lowerback 8.17533 4.24073 -2.02997
upperback 3.55094 5.23208 -3.51431
thorax -0.742012 2.53821 -2.94069
lowerneck -12.1212 -0.0280124 5.8674
upperneck 3.37212 -1.10194 1.54057
head 3.22068 -0.415673 -0.604278
rclavicle 5.50634e-014 -3.18055e-015
rhumerus 71.5431 29.3313 -16.8962
rradius 70.0361
rwrist 4.62711
rhand -45.985 49.8081
rfingers 7.12502
rthumb -18.7313 20.69
lclavicle 5.50634e-014 -3.18055e-015
lhumerus -35.804 -10.8654 78.8252
lradius 29.9351
lwrist -1.17024
lhand -15.617 10.2453
lfingers 7.12502
lthumb 10.5697 39.9596
rfemur -2.5188 18.2214 18.677
rtibia 18.1929
rfoot -23.9306 -29.4895
rtoes -22.0009
lfemur -0.692464 -13.2378 -22.4063
ltibia 22.2561
lfoot -28.4276 30.431
ltoes 7.55055
560
root 16.7326 15.5099 -0.103418 -7.6689 -102.31 5.31727
lowerback 8.25561 4.15857 -1.90678
upperback 3.4792 5.12941 -3.51199
thorax -0.85352 2.48931 -3.00735
lowerneck -11.9203 -0.0945633 5.69385
upperneck 3.13351 -1.16712 1.85286
head 3.09847 -0.447479 -0.471866
rclavicle -3.45885e-014 3.33958e-014
rhumerus 72.7362 26.8021 -19.0305
rradius 69.2088
rwrist 4.2524
rhand -46.3331 48.7573
rfingers 7.12502
rthumb -19.0661 19.6718
lclavicle -3.45885e-014 3.33958e-014
lhumerus -35.4289 -10.2467 78.4806
lradius 29.7076
lwrist -1.24806
lhand -15.4923 10.5556
lfingers 7.12502
lthumb 10.69 40.2636
rfemur -2.50644 18.5108 18.8199
rtibia 18.1816
rfoot -24.1426 -29.5704
rtoes -21.4949
lfemur -0.732273 -13.1169 -22.251
ltibia 22.2717
lfoot -28.4621 30.3689
ltoes 7.52856
561
root 16.7324 15.5113 -0.115928 -8.25847 -102.128 5.9523
lowerback 8.24184 3.96404 -1.83359
upperback 3.43811 4.88542 -3.38278
thorax -0.903282 2.37004 -2.89409
lowerneck -11.6446 -0.0756037 5.24483
upperneck 2.81832 -1.07256 2.22823
head 2.94056 -0.403854 -0.260823
rclavicle -2.96189e-014 3.65764e-014
rhumerus 73.7512 24.3165 -21.3969
rradius 67.9472
rwrist 4.16187
rhand -46.6119 48.5953
rfingers 7.12502
rthumb -19.3342 19.5365
lclavicle -2.96189e-014 3.65764e-014
lhumerus -35.1019 -9.26282 78.2118
lradius 29.578
lwrist -1.18898
lhand -15.5204 10.5798
lfingers 7.12502
lthumb 10.6628 40.2893
rfemur -2.43473 18.7734 19.0294
rtibia 18.1246
rfoot -24.4823 -29.8047
rtoes -20.938
lfemur -0.838415 -13.0368 -22.022
ltibia 22.3267
lfoot -28.4288 30.1548
ltoes 7.77525
562
root 16.7292 15.5124 -0.128837 -8.87966 -101.736 6.62343
lowerback 8.29784 4.2959 -1.22217
upperback 3.86057 5.3485 -3.88522
thorax -0.372525 2.60475 -3.77561
lowerneck -13.9939 -0.371867 6.40722
upperneck 3.36767 -1.87411 2.21893
head 3.56662 -0.758414 -0.544433
rclavicle -4.94974e-014 6.36111e-015
rhumerus 72.9054 20.0552 -24.859
rradius 66.2638
rwrist 4.26096
rhand -45.468 48.763
rfingers 7.12502
rthumb -18.234 19.5976
lclavicle -4.94974e-014 6.36111e-015
lhumerus -33.1008 -10.8374 77.6547
lradius 29.454
lwrist -0.579251
lhand -15.6456 10.489
lfingers 7.12502
lthumb 10.542 40.2046
rfemur -2.30298 18.9458 19.2179
rtibia 18.048
rfoot -24.8507 -30.1739
rtoes -20.7302
lfemur -0.96024 -13.0554 -21.8265
ltibia 22.3813
lfoot -28.3587 29.852
ltoes 7.8951
563
root 16.7224 15.5144 -0.140911 -8.66734 -101.171 6.50112
lowerback 8.2668 4.18662 -1.07396
upperback 3.60459 5.21687 -3.97777
thorax -0.605901 2.54383 -3.95278
lowerneck -13.3484 -0.495655 6.38651
upperneck 3.44055 -1.98138 2.26078
head 3.46416 -0.810335 -0.52787
rclavicle 3.18055e-014 -1.74931e-014
rhumerus 72.8783 17.517 -27.4045
rradius 64.8284
rwrist 4.11934
rhand -46.0387 47.4217
rfingers 7.12502
rthumb -18.783 18.3086
lclavicle 3.18055e-014 -1.74931e-014
lhumerus -33.1498 -10.8396 77.5536
lradius 29.6266
lwrist -0.429244
lhand -16.0418 10.1332
lfingers 7.12502
lthumb 10.1598 39.8679
rfemur -2.18447 18.9736 19.1608
rtibia 17.9324
rfoot -25.402 -30.4563
rtoes -20.1885
lfemur -1.14988 -13.1616 -21.8488
ltibia 22.4492
lfoot -28.0337 29.7178
ltoes 7.15955
564
root 16.7127 15.5147 -0.15304 -8.32472 -100.582 6.2102
lowerback 8.19065 4.09929 -1.01817
upperback 3.40423 5.11075 -4.00946
thorax -0.770185 2.49371 -4.01133
lowerneck -12.8198 -0.632661 6.32298
upperneck 3.62011 -2.10562 2.21602
head 3.42151 -0.870139 -0.535237
rclavicle -1.19271e-015 -3.65764e-014
rhumerus 72.6646 14.859 -29.5208
rradius 63.4277
rwrist 3.8126
rhand -46.6795 45.8217
rfingers 7.12502
rthumb -19.3991 16.7694
lclavicle -1.19271e-015 -3.65764e-014
lhumerus -33.189 -10.8238 77.5765
lradius 29.899
lwrist -0.181276
lhand -16.5404 9.79781
lfingers 7.12502
lthumb 9.67881 39.5554
rfemur -2.02626 18.9647 19.0873
rtibia 17.8466
rfoot -26.0336 -30.7032
rtoes -19.3335
lfemur -1.27376 -13.3134 -21.9282
ltibia 22.4943
lfoot -27.5493 29.7039
ltoes 5.92713
